<svg width="657.9px" height="121.1px" xmlns="http://www.w3.org/2000/svg" viewBox="-78.9375 14.42857208251953 657.875 121.14285583496094" style="background: rgba(0, 0, 0, 0); --darkreader-inline-bgimage: initial; --darkreader-inline-bgcolor: rgba(0, 0, 0, 0)" data-darkreader-inline-bgimage="" data-darkreader-inline-bgcolor="" preserveAspectRatio="xMidYMid"><defs><linearGradient id="editing-gradient-gradient" x1="0" x2="1" y1="0.5" y2="0.5" gradientUnits="objectBoundingBox"><stop offset="0" stop-color="#ff00ff" data-darkreader-inline-stopcolor="" style="--darkreader-inline-stopcolor: #c200c2"></stop><stop offset="1" stop-color="#00ffff" data-darkreader-inline-stopcolor="" style="--darkreader-inline-stopcolor: #00c2c2"></stop></linearGradient></defs><g><g transform="matrix(1.1,0,0,1.2,-11.2,117.4)"><path d="M -14.3 -12.9 L -28.3 -12.9 L -20.2 -55.2 L -6.1 -55.2 L -14.3 -12.9 Z M 41.4 -11.6 L 41.4 -11.6 L 41.4 -11.6 Q 33.7 -11.6 33.7 -17.7 L 33.7 -17.7 L 33.7 -17.7 Q 33.7 -20.3 34.8 -25.4 L 34.8 -25.4 L 34.8 -25.4 Q 35.9 -30.5 36.3 -32.5 L 36.3 -32.5 L 36.3 -32.5 Q 37.2 -37.2 37.2 -38.6 L 37.2 -38.6 L 37.2 -38.6 Q 37.2 -41.9 34.8 -41.9 L 34.8 -41.9 L 34.8 -41.9 Q 33.2 -41.9 31.6 -39.7 L 31.6 -39.7 L 31.6 -39.7 Q 30.1 -37.5 29.4 -33.1 L 29.4 -33.1 L 25.4 -12.9 L 12.9 -11.6 L 16.4 -29 L 16.4 -29 Q 17 -31.9 17.5 -35.2 L 17.5 -35.2 L 17.5 -35.2 Q 18 -38.5 18 -39 L 18 -39 L 18 -39 Q 18 -41.9 15.8 -41.9 L 15.8 -41.9 L 15.8 -41.9 Q 14.3 -41.9 12.7 -39.7 L 12.7 -39.7 L 12.7 -39.7 Q 11.1 -37.6 10.2 -33.1 L 10.2 -33.1 L 6.3 -12.9 L -6.3 -11.6 L 0.5 -45.6 L 10.9 -46.8 L 9.8 -40.4 L 9.8 -40.4 Q 11.5 -43.8 14.5 -45.3 L 14.5 -45.3 L 14.5 -45.3 Q 17.6 -46.8 22.4 -46.8 L 22.4 -46.8 L 22.4 -46.8 Q 25.2 -46.8 27 -45.5 L 27 -45.5 L 27 -45.5 Q 28.7 -44.1 29.3 -42 L 29.3 -42 L 29.3 -42 Q 30.4 -44.2 33.2 -45.5 L 33.2 -45.5 L 33.2 -45.5 Q 36 -46.8 39.4 -46.8 L 39.4 -46.8 L 39.4 -46.8 Q 42.8 -46.8 44.5 -46.1 L 44.5 -46.1 L 44.5 -46.1 Q 46.2 -45.4 47.2 -44.1 L 47.2 -44.1 L 47.2 -44.1 Q 49 -41.9 49 -37.8 L 49 -37.8 L 49 -37.8 Q 49 -33.8 47.2 -25.4 L 47.2 -25.4 L 47.2 -25.4 Q 46.3 -21.3 46.3 -19.8 L 46.3 -19.8 L 46.3 -19.8 Q 46.3 -18.3 47.2 -17.4 L 47.2 -17.4 L 47.2 -17.4 Q 48.1 -16.5 49.4 -16.4 L 49.4 -16.4 L 49.4 -16.4 Q 48.7 -14.2 46.5 -12.9 L 46.5 -12.9 L 46.5 -12.9 Q 44.3 -11.6 41.4 -11.6 Z M 57.1 -14.8 L 57.1 -14.8 L 57.1 -14.8 Q 55.6 -16.5 54.9 -19.1 L 54.9 -19.1 L 54.9 -19.1 Q 54.2 -21.7 54.2 -26 L 54.2 -26 L 54.2 -26 Q 54.2 -30.3 55.7 -34.2 L 55.7 -34.2 L 55.7 -34.2 Q 57.2 -38.1 59.8 -40.9 L 59.8 -40.9 L 59.8 -40.9 Q 65.4 -46.8 74.4 -46.8 L 74.4 -46.8 L 74.4 -46.8 Q 77.7 -46.8 80.1 -45.7 L 80.1 -45.7 L 91 -46.8 L 86.3 -21.9 L 86.3 -21.9 Q 86.1 -21.1 86.1 -19.7 L 86.1 -19.7 L 86.1 -19.7 Q 86.1 -18.3 87 -17.4 L 87 -17.4 L 87 -17.4 Q 87.8 -16.5 89.1 -16.4 L 89.1 -16.4 L 89.1 -16.4 Q 88.5 -14.2 86.1 -12.9 L 86.1 -12.9 L 86.1 -12.9 Q 83.8 -11.6 81.2 -11.6 L 81.2 -11.6 L 81.2 -11.6 Q 78.5 -11.6 76.8 -12.6 L 76.8 -12.6 L 76.8 -12.6 Q 75 -13.6 74.5 -15.3 L 74.5 -15.3 L 74.5 -15.3 Q 73.5 -13.7 71.3 -12.7 L 71.3 -12.7 L 71.3 -12.7 Q 69.1 -11.6 66.2 -11.6 L 66.2 -11.6 L 66.2 -11.6 Q 63.3 -11.6 60.9 -12.4 L 60.9 -12.4 L 60.9 -12.4 Q 58.6 -13.2 57.1 -14.8 Z M 70.6 -40.8 L 70.6 -40.8 L 70.6 -40.8 Q 69.8 -39.7 69.2 -37.7 L 69.2 -37.7 L 69.2 -37.7 Q 68.6 -35.8 67.5 -30.5 L 67.5 -30.5 L 67.5 -30.5 Q 66.4 -25.3 66.4 -21.6 L 66.4 -21.6 L 66.4 -21.6 Q 66.4 -17.9 67 -16.8 L 67 -16.8 L 67 -16.8 Q 67.6 -15.7 68.6 -15.7 L 68.6 -15.7 L 68.6 -15.7 Q 70.7 -15.7 72.2 -17.7 L 72.2 -17.7 L 72.2 -17.7 Q 73.7 -19.6 74.2 -23.1 L 74.2 -23.1 L 77.6 -41.8 L 77.6 -41.8 Q 76.3 -43 74.7 -43 L 74.7 -43 L 74.7 -43 Q 73.2 -43 72.2 -42.5 L 72.2 -42.5 L 72.2 -42.5 Q 71.3 -42 70.6 -40.8 Z M 98.8 -39.7 L 98.8 -39.7 L 98.8 -39.7 Q 100.9 -42.7 104.2 -44.8 L 104.2 -44.8 L 104.2 -44.8 Q 107.5 -46.8 111.6 -46.8 L 111.6 -46.8 L 111.6 -46.8 Q 115.6 -46.8 117.5 -45.6 L 117.5 -45.6 L 130.1 -46.8 L 125.7 -22.3 L 125.7 -22.3 Q 123.5 -9.7 118.7 -4.8 L 118.7 -4.8 L 118.7 -4.8 Q 114.2 -0.1 105.4 -0.1 L 105.4 -0.1 L 105.4 -0.1 Q 98.6 -0.1 94.8 -2.2 L 94.8 -2.2 L 94.8 -2.2 Q 91 -4.3 91 -7.9 L 91 -7.9 L 91 -7.9 Q 91 -10.5 92.9 -12 L 92.9 -12 L 92.9 -12 Q 94.9 -13.5 98 -13.5 L 98 -13.5 L 98 -13.5 Q 100.7 -13.5 102.7 -12.3 L 102.7 -12.3 L 102.7 -12.3 Q 103.9 -11.6 104.5 -10.7 L 104.5 -10.7 L 104.5 -10.7 Q 103 -9.5 103 -7.3 L 103 -7.3 L 103 -7.3 Q 103 -4.6 105.6 -4.6 L 105.6 -4.6 L 105.6 -4.6 Q 109.9 -4.6 112.3 -14.7 L 112.3 -14.7 L 112.3 -14.7 Q 113 -17.5 113.6 -20.2 L 113.6 -20.2 L 113.6 -20.2 Q 110.7 -16.7 104.2 -16.7 L 104.2 -16.7 L 104.2 -16.7 Q 99.7 -16.7 97 -18.9 L 97 -18.9 L 97 -18.9 Q 94.4 -21 94.4 -26.2 L 94.4 -26.2 L 94.4 -26.2 Q 94.4 -29.4 95.5 -33 L 95.5 -33 L 95.5 -33 Q 96.6 -36.6 98.8 -39.7 Z M 107.1 -26 L 107.1 -26 L 107.1 -26 Q 107.1 -21.6 109.3 -21.6 L 109.3 -21.6 L 109.3 -21.6 Q 110.9 -21.6 112.3 -23.3 L 112.3 -23.3 L 112.3 -23.3 Q 113.5 -24.6 113.9 -26.6 L 113.9 -26.6 L 117.2 -43.1 L 117.2 -43.1 Q 116.9 -43.1 116.6 -43.3 L 116.6 -43.3 L 116.6 -43.3 Q 115.9 -43.5 115.1 -43.5 L 115.1 -43.5 L 115.1 -43.5 Q 111.2 -43.5 108.9 -37.1 L 108.9 -37.1 L 108.9 -37.1 Q 107.1 -32.1 107.1 -26 Z M 158.5 -23.7 L 158.5 -23.7 L 158.5 -23.7 Q 160.1 -22.6 160.1 -20.2 L 160.1 -20.2 L 160.1 -20.2 Q 160.1 -17.8 158.9 -16.3 L 158.9 -16.3 L 158.9 -16.3 Q 157.6 -14.8 155.7 -13.7 L 155.7 -13.7 L 155.7 -13.7 Q 151.6 -11.6 147.1 -11.6 L 147.1 -11.6 L 147.1 -11.6 Q 142.7 -11.6 140.1 -12.6 L 140.1 -12.6 L 140.1 -12.6 Q 137.5 -13.6 135.8 -15.3 L 135.8 -15.3 L 135.8 -15.3 Q 132.4 -18.7 132.4 -24.9 L 132.4 -24.9 L 132.4 -24.9 Q 132.4 -34.6 137.7 -40.5 L 137.7 -40.5 L 137.7 -40.5 Q 143.3 -46.8 153.1 -46.8 L 153.1 -46.8 L 153.1 -46.8 Q 159.2 -46.8 162.2 -44.3 L 162.2 -44.3 L 162.2 -44.3 Q 164.4 -42.4 164.4 -39.2 L 164.4 -39.2 L 164.4 -39.2 Q 164.4 -28 145 -28 L 145 -28 L 145 -28 Q 144.7 -26.3 144.7 -24.9 L 144.7 -24.9 L 144.7 -24.9 Q 144.7 -21.9 146 -20.8 L 146 -20.8 L 146 -20.8 Q 147.3 -19.7 149.8 -19.7 L 149.8 -19.7 L 149.8 -19.7 Q 152.2 -19.7 154.8 -20.8 L 154.8 -20.8 L 154.8 -20.8 Q 157.4 -21.9 158.5 -23.7 Z M 145.4 -30.7 L 145.4 -30.7 L 145.4 -30.7 Q 150 -30.7 152.6 -33.5 L 152.6 -33.5 L 152.6 -33.5 Q 155.2 -36.2 155.2 -40.5 L 155.2 -40.5 L 155.2 -40.5 Q 155.2 -42 154.7 -42.8 L 154.7 -42.8 L 154.7 -42.8 Q 154.1 -43.6 153 -43.6 L 153 -43.6 L 153 -43.6 Q 151.9 -43.6 151 -43.2 L 151 -43.2 L 151 -43.2 Q 150.1 -42.7 149.1 -41.3 L 149.1 -41.3 L 149.1 -41.3 Q 146.8 -38.1 145.4 -30.7 Z M 185.7 -35.4 L 185.7 -35.4 L 185.7 -35.4 Q 186.6 -37.7 186.6 -39.8 L 186.6 -39.8 L 186.6 -39.8 Q 186.6 -43.6 183.6 -43.6 L 183.6 -43.6 L 183.6 -43.6 Q 182 -43.6 180.6 -42.1 L 180.6 -42.1 L 180.6 -42.1 Q 179.3 -40.7 179.3 -38.9 L 179.3 -38.9 L 179.3 -38.9 Q 179.3 -37.6 180.4 -36.6 L 180.4 -36.6 L 180.4 -36.6 Q 181.8 -35.2 185.6 -32.9 L 185.6 -32.9 L 185.6 -32.9 Q 189.4 -30.6 190.8 -28.7 L 190.8 -28.7 L 190.8 -28.7 Q 192.3 -26.8 192.3 -24.2 L 192.3 -24.2 L 192.3 -24.2 Q 192.3 -21.6 191 -19.3 L 191 -19.3 L 191 -19.3 Q 189.8 -16.9 187.5 -15.2 L 187.5 -15.2 L 187.5 -15.2 Q 182.7 -11.6 175 -11.6 L 175 -11.6 L 175 -11.6 Q 170.9 -11.6 167.7 -13.8 L 167.7 -13.8 L 167.7 -13.8 Q 164.5 -15.9 164.5 -18.4 L 164.5 -18.4 L 164.5 -18.4 Q 164.5 -20.9 166.3 -22.4 L 166.3 -22.4 L 166.3 -22.4 Q 168.1 -23.9 170.8 -23.9 L 170.8 -23.9 L 170.8 -23.9 Q 173.5 -23.9 175.2 -22.8 L 175.2 -22.8 L 175.2 -22.8 Q 174.3 -20.7 174.3 -19.3 L 174.3 -19.3 L 174.3 -19.3 Q 174.3 -15.1 177.9 -15.1 L 177.9 -15.1 L 177.9 -15.1 Q 179.5 -15.1 180.5 -16.1 L 180.5 -16.1 L 180.5 -16.1 Q 181.5 -17 181.5 -18.7 L 181.5 -18.7 L 181.5 -18.7 Q 181.5 -21.9 176 -25.4 L 176 -25.4 L 176 -25.4 Q 171.5 -28.3 170.5 -29.5 L 170.5 -29.5 L 170.5 -29.5 Q 168.8 -31.5 168.8 -34.1 L 168.8 -34.1 L 168.8 -34.1 Q 168.8 -36.7 170 -39.1 L 170 -39.1 L 170 -39.1 Q 171.2 -41.5 173.4 -43.3 L 173.4 -43.3 L 173.4 -43.3 Q 178.1 -46.8 186.2 -46.8 L 186.2 -46.8 L 186.2 -46.8 Q 190.4 -46.8 192.9 -45.2 L 192.9 -45.2 L 192.9 -45.2 Q 195.3 -43.5 195.3 -40.7 L 195.3 -40.7 L 195.3 -40.7 Q 195.3 -37.9 193.6 -36.3 L 193.6 -36.3 L 193.6 -36.3 Q 191.9 -34.7 188.9 -34.7 L 188.9 -34.7 L 188.9 -34.7 Q 186.8 -34.7 185.7 -35.4 Z M 236.8 -33.5 L 249.7 -34.7 L 249.7 -34.7 Q 245.1 -24.6 245.1 -12.9 L 245.1 -12.9 L 245.1 -12.9 Q 243.4 -11.6 240.9 -11.6 L 240.9 -11.6 L 240.9 -11.6 Q 238.3 -11.6 236.7 -12.8 L 236.7 -12.8 L 236.7 -12.8 Q 235.1 -14 234.8 -15.2 L 234.8 -15.2 L 234.8 -15.2 Q 233.2 -13.6 230.6 -12.6 L 230.6 -12.6 L 230.6 -12.6 Q 228 -11.6 225.3 -11.6 L 225.3 -11.6 L 225.3 -11.6 Q 222.5 -11.6 220.1 -12.5 L 220.1 -12.5 L 220.1 -12.5 Q 217.7 -13.4 215.9 -15.4 L 215.9 -15.4 L 215.9 -15.4 Q 211.8 -19.8 211.8 -28 L 211.8 -28 L 211.8 -28 Q 211.8 -40.8 218.6 -48.5 L 218.6 -48.5 L 218.6 -48.5 Q 225.7 -56.4 238.2 -56.4 L 238.2 -56.4 L 238.2 -56.4 Q 246.8 -56.4 249.9 -52 L 249.9 -52 L 249.9 -52 Q 250.8 -50.5 250.8 -48.9 L 250.8 -48.9 L 250.8 -48.9 Q 250.8 -47.2 250.1 -45.7 L 250.1 -45.7 L 250.1 -45.7 Q 249.4 -44.3 248.2 -43.1 L 248.2 -43.1 L 248.2 -43.1 Q 245.4 -40.6 242.1 -40.6 L 242.1 -40.6 L 242.1 -40.6 Q 240.7 -40.6 239.4 -41 L 239.4 -41 L 239.4 -41 Q 239.7 -42.9 239.7 -45.2 L 239.7 -45.2 L 239.7 -45.2 Q 239.7 -47.4 239.5 -48.4 L 239.5 -48.4 L 239.5 -48.4 Q 239.4 -49.5 239 -50.3 L 239 -50.3 L 239 -50.3 Q 238.2 -52 236.3 -52 L 236.3 -52 L 236.3 -52 Q 234.5 -52 232.5 -50.1 L 232.5 -50.1 L 232.5 -50.1 Q 230.5 -48.1 228.9 -44.9 L 228.9 -44.9 L 228.9 -44.9 Q 225.4 -37.7 225.4 -29.1 L 225.4 -29.1 L 225.4 -29.1 Q 225.4 -25.1 226.9 -22.3 L 226.9 -22.3 L 226.9 -22.3 Q 228.6 -19.3 231.5 -19.3 L 231.5 -19.3 L 231.5 -19.3 Q 232.5 -19.3 233.4 -19.8 L 233.4 -19.8 L 233.4 -19.8 Q 234.4 -20.3 234.8 -20.7 L 234.8 -20.7 L 236.8 -33.5 Z M 255.7 -14.8 L 255.7 -14.8 L 255.7 -14.8 Q 254.2 -16.5 253.5 -19.1 L 253.5 -19.1 L 253.5 -19.1 Q 252.8 -21.7 252.8 -26 L 252.8 -26 L 252.8 -26 Q 252.8 -30.3 254.3 -34.2 L 254.3 -34.2 L 254.3 -34.2 Q 255.8 -38.1 258.4 -40.9 L 258.4 -40.9 L 258.4 -40.9 Q 263.9 -46.8 273 -46.8 L 273 -46.8 L 273 -46.8 Q 276.3 -46.8 278.7 -45.7 L 278.7 -45.7 L 289.6 -46.8 L 284.9 -21.9 L 284.9 -21.9 Q 284.7 -21.1 284.7 -19.7 L 284.7 -19.7 L 284.7 -19.7 Q 284.7 -18.3 285.5 -17.4 L 285.5 -17.4 L 285.5 -17.4 Q 286.4 -16.5 287.7 -16.4 L 287.7 -16.4 L 287.7 -16.4 Q 287 -14.2 284.7 -12.9 L 284.7 -12.9 L 284.7 -12.9 Q 282.4 -11.6 279.8 -11.6 L 279.8 -11.6 L 279.8 -11.6 Q 277.1 -11.6 275.4 -12.6 L 275.4 -12.6 L 275.4 -12.6 Q 273.6 -13.6 273.1 -15.3 L 273.1 -15.3 L 273.1 -15.3 Q 272.1 -13.7 269.9 -12.7 L 269.9 -12.7 L 269.9 -12.7 Q 267.7 -11.6 264.8 -11.6 L 264.8 -11.6 L 264.8 -11.6 Q 261.9 -11.6 259.5 -12.4 L 259.5 -12.4 L 259.5 -12.4 Q 257.2 -13.2 255.7 -14.8 Z M 269.2 -40.8 L 269.2 -40.8 L 269.2 -40.8 Q 268.4 -39.7 267.8 -37.7 L 267.8 -37.7 L 267.8 -37.7 Q 267.1 -35.8 266.1 -30.5 L 266.1 -30.5 L 266.1 -30.5 Q 265 -25.3 265 -21.6 L 265 -21.6 L 265 -21.6 Q 265 -17.9 265.6 -16.8 L 265.6 -16.8 L 265.6 -16.8 Q 266.2 -15.7 267.2 -15.7 L 267.2 -15.7 L 267.2 -15.7 Q 269.3 -15.7 270.8 -17.7 L 270.8 -17.7 L 270.8 -17.7 Q 272.3 -19.6 272.8 -23.1 L 272.8 -23.1 L 276.2 -41.8 L 276.2 -41.8 Q 274.9 -43 273.3 -43 L 273.3 -43 L 273.3 -43 Q 271.8 -43 270.8 -42.5 L 270.8 -42.5 L 270.8 -42.5 Q 269.9 -42 269.2 -40.8 Z M 308.4 -16.4 L 308.4 -16.4 L 308.4 -16.4 Q 306.4 -11.6 300 -11.6 L 300 -11.6 L 300 -11.6 Q 296.8 -11.6 294.8 -13.9 L 294.8 -13.9 L 294.8 -13.9 Q 293.1 -15.7 293.1 -17.8 L 293.1 -17.8 L 293.1 -17.8 Q 293.1 -22.6 295.4 -33.1 L 295.4 -33.1 L 300 -57.7 L 313 -59 L 306.8 -26.6 L 306.8 -26.6 Q 305.7 -21.9 305.7 -20.2 L 305.7 -20.2 L 305.7 -20.2 Q 305.7 -16.6 308.4 -16.4 Z M 329.1 -16.4 L 329.1 -16.4 L 329.1 -16.4 Q 327.1 -11.6 320.8 -11.6 L 320.8 -11.6 L 320.8 -11.6 Q 317.6 -11.6 315.5 -13.9 L 315.5 -13.9 L 315.5 -13.9 Q 313.9 -15.7 313.9 -17.8 L 313.9 -17.8 L 313.9 -17.8 Q 313.9 -22.6 316.1 -33.1 L 316.1 -33.1 L 320.8 -57.7 L 333.8 -59 L 327.6 -26.6 L 327.6 -26.6 Q 326.5 -21.9 326.5 -20.2 L 326.5 -20.2 L 326.5 -20.2 Q 326.5 -16.6 329.1 -16.4 Z M 360.5 -23.7 L 360.5 -23.7 L 360.5 -23.7 Q 362.1 -22.6 362.1 -20.2 L 362.1 -20.2 L 362.1 -20.2 Q 362.1 -17.8 360.8 -16.3 L 360.8 -16.3 L 360.8 -16.3 Q 359.6 -14.8 357.6 -13.7 L 357.6 -13.7 L 357.6 -13.7 Q 353.5 -11.6 349.1 -11.6 L 349.1 -11.6 L 349.1 -11.6 Q 344.7 -11.6 342.1 -12.6 L 342.1 -12.6 L 342.1 -12.6 Q 339.5 -13.6 337.8 -15.3 L 337.8 -15.3 L 337.8 -15.3 Q 334.4 -18.7 334.4 -24.9 L 334.4 -24.9 L 334.4 -24.9 Q 334.4 -34.6 339.7 -40.5 L 339.7 -40.5 L 339.7 -40.5 Q 345.3 -46.8 355.1 -46.8 L 355.1 -46.8 L 355.1 -46.8 Q 361.2 -46.8 364.2 -44.3 L 364.2 -44.3 L 364.2 -44.3 Q 366.4 -42.4 366.4 -39.2 L 366.4 -39.2 L 366.4 -39.2 Q 366.4 -28 347 -28 L 347 -28 L 347 -28 Q 346.7 -26.3 346.7 -24.9 L 346.7 -24.9 L 346.7 -24.9 Q 346.7 -21.9 348 -20.8 L 348 -20.8 L 348 -20.8 Q 349.3 -19.7 351.8 -19.7 L 351.8 -19.7 L 351.8 -19.7 Q 354.2 -19.7 356.8 -20.8 L 356.8 -20.8 L 356.8 -20.8 Q 359.4 -21.9 360.5 -23.7 Z M 347.4 -30.7 L 347.4 -30.7 L 347.4 -30.7 Q 351.9 -30.7 354.6 -33.5 L 354.6 -33.5 L 354.6 -33.5 Q 357.2 -36.2 357.2 -40.5 L 357.2 -40.5 L 357.2 -40.5 Q 357.2 -42 356.6 -42.8 L 356.6 -42.8 L 356.6 -42.8 Q 356.1 -43.6 355 -43.6 L 355 -43.6 L 355 -43.6 Q 353.9 -43.6 353 -43.2 L 353 -43.2 L 353 -43.2 Q 352.1 -42.7 351.1 -41.3 L 351.1 -41.3 L 351.1 -41.3 Q 348.7 -38.1 347.4 -30.7 Z M 388.6 -30.9 L 388.6 -30.9 L 388.6 -30.9 Q 390.9 -35 390.9 -39.2 L 390.9 -39.2 L 390.9 -39.2 Q 390.9 -41.9 388.9 -41.9 L 388.9 -41.9 L 388.9 -41.9 Q 387.4 -41.9 385.8 -39.3 L 385.8 -39.3 L 385.8 -39.3 Q 384.1 -36.7 383.6 -33.3 L 383.6 -33.3 L 380.3 -12.9 L 367 -11.6 L 373.6 -45.6 L 384.1 -46.8 L 383 -40.4 L 383 -40.4 Q 386.1 -46.8 393.2 -46.8 L 393.2 -46.8 L 393.2 -46.8 Q 396.9 -46.8 398.9 -44.9 L 398.9 -44.9 L 398.9 -44.9 Q 400.9 -43 400.9 -39.1 L 400.9 -39.1 L 400.9 -39.1 Q 400.9 -35.1 398.3 -32.6 L 398.3 -32.6 L 398.3 -32.6 Q 395.7 -30.1 391.3 -30.1 L 391.3 -30.1 L 391.3 -30.1 Q 389.4 -30.1 388.6 -30.9 Z M 422.3 -20.1 L 422.3 -20.1 L 422.3 -20.1 Q 419 -16.7 412.9 -16.7 L 412.9 -16.7 L 412.9 -16.7 Q 405.3 -16.7 403.7 -22.3 L 403.7 -22.3 L 403.7 -22.3 Q 403.1 -23.9 403.1 -25.8 L 403.1 -25.8 L 403.1 -25.8 Q 403.1 -27.6 403.5 -29.6 L 403.5 -29.6 L 406.5 -45.6 L 419.5 -46.8 L 416 -28.2 L 416 -28.2 Q 415.9 -27.4 415.7 -26.5 L 415.7 -26.5 L 415.7 -26.5 Q 415.5 -25.6 415.5 -24.7 L 415.5 -24.7 L 415.5 -24.7 Q 415.5 -23.7 415.8 -23.1 L 415.8 -23.1 L 415.8 -23.1 Q 416.1 -22.5 416.6 -22.1 L 416.6 -22.1 L 416.6 -22.1 Q 417.4 -21.6 418.7 -21.6 L 418.7 -21.6 L 418.7 -21.6 Q 420.1 -21.6 421.3 -23.3 L 421.3 -23.3 L 421.3 -23.3 Q 422.5 -24.9 423 -27.8 L 423 -27.8 L 426.6 -45.6 L 439.2 -46.8 L 434.4 -21.7 L 434.4 -21.7 Q 432 -9.4 427.1 -4.5 L 427.1 -4.5 L 427.1 -4.5 Q 424.6 -2 421.4 -1 L 421.4 -1 L 421.4 -1 Q 418.2 -0.1 414 -0.1 L 414 -0.1 L 414 -0.1 Q 407.3 -0.1 403.5 -2.2 L 403.5 -2.2 L 403.5 -2.2 Q 399.6 -4.3 399.6 -7.8 L 399.6 -7.8 L 399.6 -7.8 Q 399.6 -10.4 401.6 -11.9 L 401.6 -11.9 L 401.6 -11.9 Q 403.6 -13.4 406.7 -13.4 L 406.7 -13.4 L 406.7 -13.4 Q 409.4 -13.4 411.4 -12.3 L 411.4 -12.3 L 411.4 -12.3 Q 412.6 -11.6 413.2 -10.7 L 413.2 -10.7 L 413.2 -10.7 Q 411.7 -9.4 411.7 -7.3 L 411.7 -7.3 L 411.7 -7.3 Q 411.7 -4.5 414.3 -4.5 L 414.3 -4.5 L 414.3 -4.5 Q 418.5 -4.5 420.9 -14.2 L 420.9 -14.2 L 420.9 -14.2 Q 421.6 -17.1 422.3 -20.1 Z" fill="url(#editing-gradient-gradient)"></path></g></g><style>text {
  font-size: 64px;
  font-family: Arial Black;
  dominant-baseline: central;
  text-anchor: middle;
}</style><style media="screen"></style></svg>